PathFileType	4	(X/Y/Z)	Patient4_TMGait_0pt4_03_left_38.trc.trc
DataRate	CameraRate	NumFrames	NumMarkers	Units	OrigDataRate	OrigDataStartFrame	OrigNumFrames
74.468085106383	74.468085106383	6	33	mm	74.468085106383	106	       141
Frame#	Time	Sacral			L.Shoulder			Chest			R.Shoulder			Neck			R.ASIS			L.ASIS			R.Thigh.Superior			R.Thigh.Lateral			R.Thigh.Inferior			R.Patella			L.Thigh.Superior			L.Thigh.Lateral			L.Thigh.Inferior			L.Patella			L.Shank.Superior			L.Shank.Lateral			L.Shank.Inferior			R.Shank.Superior			R.Shank.Lateral			R.Shank.Inferior			R.Heel			R.Midfoot.Superior			R.Midfoot.Lateral			R.Toe			L.Heel			L.Midfoot.Lateral			L.Midfoot.Superior			L.Toe			L.Elbow			L.Wrist			R.Elbow			R.Wrist			
		X1	Y1	Z1	X2	Y2	Z2	X3	Y3	Z3	X4	Y4	Z4	X5	Y5	Z5	X6	Y6	Z6	X7	Y7	Z7	X8	Y8	Z8	X9	Y9	Z9	X10	Y10	Z10	X11	Y11	Z11	X12	Y12	Z12	X13	Y13	Z13	X14	Y14	Z14	X15	Y15	Z15	X16	Y16	Z16	X17	Y17	Z17	X18	Y18	Z18	X19	Y19	Z19	X20	Y20	Z20	X21	Y21	Z21	X22	Y22	Z22	X23	Y23	Z23	X24	Y24	Z24	X25	Y25	Z25	X26	Y26	Z26	X27	Y27	Z27	X28	Y28	Z28	X29	Y29	Z29	X30	Y30	Z30	X31	Y31	Z31	X32	Y32	Z32	X33	Y33	Z33	

106	51.780000000000	871.605135182964	1010.952381473787	547.077462998577	1023.144587330061	1443.076740094428	359.349942903075	1147.601191586520	1373.979565986654	503.942944397062	1088.395493787517	1441.026900586474	690.237695383739	1023.898733857678	1501.711279865395	519.619698500548	1109.977177967038	944.644876489620	638.619933501054	1069.537835128003	975.483944793045	368.632566424583	1131.272198195792	739.596693207973	605.260275047204	1047.231062857494	634.600573460792	671.947878639873	1114.151054484553	579.407727363535	586.631414702586	1108.844423298113	495.950426427254	592.168066332892	1158.155355622392	798.826619792134	382.357445653114	1116.324170546501	672.327570995649	298.616573647787	1226.140962254688	616.264557559556	348.866488035222	1250.373923217993	539.172659285659	337.110044232927	1212.239393066573	463.039322519137	327.582483223312	1103.320624138250	366.784291447088	276.084437912281	1152.166263426769	241.834660508974	322.542113759315	1083.282931535029	407.000822637176	599.417539347800	1016.648785367225	301.010758447900	663.166784997460	1058.170243783371	208.353440264022	594.844002318755	926.396234819839	42.669276281042	566.412479225472	1098.361971969692	96.969978800001	595.495443730407	1012.721372493154	36.868900743550	637.825144706107	1220.131612622217	45.378290340849	616.754485327528	1014.208314332425	98.017115411535	358.148501440712	1082.244906201232	86.072375973559	274.556088311419	1173.592606704662	138.750778308091	296.215968621060	1291.008391005456	74.530035581967	259.908742509018	932.233128020137	1095.945568728881	263.076515015416	946.859112912863	835.835253944223	262.434319634361	1194.936214896104	1115.379258916897	818.418323057383	1437.270210558731	1051.415905682447	758.237606858820	
107	51.793428571429	870.558542152044	1011.367773741320	548.603494596610	1021.556054014386	1443.129302129113	360.281358046625	1147.178556061822	1373.543158030427	503.643851472847	1089.920598657748	1440.769175587369	690.489685347822	1023.973277517559	1501.564019620573	520.595430533101	1109.225549196128	944.483610607812	638.481024234840	1067.277343295272	975.332195115391	368.605934692772	1128.404708024583	739.108250663749	605.118512045933	1043.974177959572	634.606553667853	672.570643520830	1109.746337015731	578.970000456240	586.977189301286	1103.857854436096	495.757668671466	592.733024323768	1154.532822905064	797.766977270051	382.546956875701	1112.220306262605	671.600190603146	298.602386159799	1221.044487954458	614.754241153874	349.932816037490	1246.108301737841	540.112625294678	338.152972897166	1212.261579065584	464.475845998359	327.785901055219	1110.794013914092	361.337017341591	275.092020194837	1168.209195073570	239.753595043646	321.114294895306	1078.067397940750	406.922648796536	599.918382405593	1011.363366541573	300.891713151889	663.522235825586	1052.797581668696	208.310974661455	595.119928136045	920.939519390564	42.625289397139	566.449401674943	1092.944315924936	96.970812444623	595.548487924818	1007.286460419912	36.829633892840	637.874217195848	1214.684379948245	45.414504231610	616.723209433024	1040.694415665436	86.807372729638	355.862323016913	1109.802839300691	79.496025736327	272.409325537506	1197.534715110350	137.827818325272	294.354626191157	1319.042790733792	81.327985899659	258.333504585858	924.688281538519	1097.445070978445	265.892906116313	932.973664741921	837.106888666157	267.131225535663	1203.505846812043	1117.880437682740	817.164276011251	1448.049568872528	1068.241593579002	753.618837141929	
108	51.806857142857	869.546933501402	1011.668672858073	549.912855644909	1020.080657321382	1443.110647792729	361.001464217055	1146.756552584210	1373.023222056603	503.208233202646	1091.308770016870	1440.394834637915	690.546296660970	1024.027855438321	1501.337330837942	521.338704076401	1108.548925999502	944.328742820091	638.232329392003	1065.128267827211	974.973055810844	368.438959407476	1125.665715986099	738.601248368237	605.029142410182	1040.784076712357	634.609630932601	673.179627282205	1105.401207161278	578.532991382589	587.343752765059	1098.927152723277	495.557034757777	593.330922841682	1150.630889040285	796.070515608514	382.658421042775	1107.494073912838	670.366876244440	298.514476560388	1215.261256136771	612.503871998622	350.974063237668	1241.020130725255	540.453465094151	339.309466837093	1211.431358138991	465.658166660843	328.076606674516	1117.828705229835	356.101838182207	274.191368711667	1183.538807700662	238.490157223355	319.907906812490	1072.880780643056	406.842028031666	600.427763899748	1006.084787775239	300.781766960309	663.895089117341	1047.422354986700	208.268081228641	595.401330281632	915.478740514382	42.579053821739	566.486826283136	1087.525179654714	96.970331280719	595.605309390699	1001.849626823337	36.786731628726	637.925921909877	1209.239841962660	45.453875939666	616.707702807515	1066.872976078063	77.379305023886	353.838581350515	1136.971857617345	74.253843388927	270.723033597672	1220.829864616865	137.927482413704	292.889035230506	1345.927406484065	88.943596812688	257.674631996416	917.636967112535	1098.916924797167	268.480787740499	920.052601134364	838.494753744859	271.526626663319	1211.711019424690	1120.338380078194	815.595029691280	1457.584455959540	1084.497660920943	749.027939927851	
109	51.820285714286	868.594887444886	1011.851365038014	550.998364019038	1018.716272361149	1443.029992393926	361.497568817030	1146.324261691564	1372.446223824580	502.641991143972	1092.519486420822	1439.932489177703	690.405482384814	1024.038431630251	1501.048438636731	521.834750816611	1107.964456601601	944.183986091386	637.887802528270	1063.107149036244	974.434539756377	368.154430057766	1123.086415253096	738.075961152307	604.996662363717	1037.662554191216	634.615265929442	673.750491128753	1101.135575427531	578.098019337721	587.718334856734	1094.069807552396	495.345464929608	593.934266377068	1146.538325219556	793.849240116781	382.679974175599	1102.256871219034	668.698900185500	298.385060565337	1209.015750672705	609.690858278114	351.910143418125	1235.340149299275	540.297991851823	340.518688078356	1209.863614203228	466.614849056536	328.425686553582	1124.251344850572	351.229883386993	273.484430625217	1197.825197338030	238.052816863446	318.959944371155	1067.737897543015	406.759763502240	600.926251868816	1000.820869862641	300.692073028864	664.274481496177	1042.050816051374	208.228960351799	595.683247245336	910.016462728701	42.530953938235	566.527216657523	1082.104109868891	96.970601590864	595.667794590259	996.411901492478	36.741543560383	637.981438145096	1203.796727783426	45.499135213491	616.708505205624	1092.101919048144	69.856686399791	352.238807747519	1163.086992835789	70.372353449682	269.597047837548	1242.947062097890	138.994972427368	291.836155362659	1371.107099052591	97.152366552723	257.838289638520	911.088189233896	1100.337978855144	270.816466533171	908.135664339192	839.944830964703	275.573794608441	1219.517443894743	1122.763605694151	813.726619841809	1465.936609512005	1100.037828806788	744.504677510792	
110	51.833714285714	867.726355252150	1011.912307062104	551.858537497247	1017.448665637927	1442.894766995342	361.762399053195	1145.868578931083	1371.839433127068	501.949822597036	1093.520238159047	1439.412414800010	690.068025591471	1023.981200165249	1500.711961661005	522.078331974320	1107.487547812361	944.049563111421	637.455542914770	1061.227729936686	973.751262234531	367.770028096645	1120.692391743836	737.533283269343	605.006366765121	1034.618067296137	634.627091134614	674.255719545505	1096.972669626770	577.665139875625	588.080072843943	1089.306844081326	495.117058793670	594.509303528942	1142.372479103127	791.246658100112	382.593457872165	1096.668000692050	666.676849542943	298.262892095771	1202.574746148302	606.514980552556	352.677457146748	1229.342987439793	539.758303534749	341.715475326597	1207.708220081915	467.353919752229	328.810329680744	1129.878117753806	346.819758806567	273.081229327433	1210.735583545383	238.341895275595	318.304833230030	1062.658505787794	406.675062490388	601.393234879400	995.584892407215	300.631866665814	664.647043349513	1036.691810929282	208.195422605572	595.958783531187	904.554487185608	42.482128087461	566.571956395954	1076.679731606246	96.972677826187	595.735562237486	990.974277591632	36.695530414594	638.041037607206	1198.353449603457	45.552293074925	616.722932593938	1115.690390865178	64.200434717348	351.223569682049	1187.417515075614	67.746495332350	269.106442462931	1263.318456600541	140.850347934818	291.194618931324	1394.005156402898	105.603954585708	258.649501192219	905.048965997297	1101.683272825233	272.869390445804	897.263716880610	841.401178405128	279.223772966667	1226.876496938025	1125.162038063255	811.582792151099	1473.173326171870	1114.742684114792	740.080232682379	
111	51.847142857143	866.961543275832	1011.848090641966	552.497173242285	1016.252632703609	1442.708737526616	361.793839264332	1145.375075635978	1371.227620937323	501.133936939880	1094.288999394788	1438.862463950579	689.537037146756	1023.833860780900	1500.338189729383	522.071704505582	1107.130113304811	943.922660958614	636.937575748143	1059.501574143047	972.958741168783	367.296173297443	1118.502618807218	736.974914676015	605.026742782416	1031.668685376672	634.645656546346	674.668774076938	1092.941300306600	577.232688148149	588.403419646412	1084.666380421203	494.863543947918	595.021255851821	1138.276099850397	788.427718703161	382.377980078427	1090.930273666578	664.386666729988	298.207963099809	1196.228644370974	603.179869419307	353.236214984806	1223.328480850966	538.940193939605	342.835422040170	1205.140899073421	467.857938652058	329.221782778579	1134.535369804932	342.911271275728	273.084980083035	1221.951862789914	239.156129162597	317.981530469330	1057.669255615604	406.584560343780	601.809613083738	990.397775279327	300.607038229923	664.998957312619	1031.358019919891	208.166142518633	596.219954534915	899.093959222133	42.434539929060	566.621442358836	1071.250393250886	96.976551843260	595.806390662779	985.537396686723	36.650210429263	638.104245343254	1192.908775980468	45.614117153558	616.746644615713	1136.934798544718	60.221119337011	350.938895708789	1209.208171913654	66.153781944202	269.299397074687	1281.370439896949	143.199941236319	290.957775436668	1414.050111749742	113.836547939258	259.885727674879	899.524991228682	1102.924252345777	274.604749341670	887.479164432647	842.804323079371	282.427722966643	1233.729749646177	1127.530152619608	809.196869156214	1479.363246162671	1128.518546587620	735.779029696633	
